<?xml version="1.0" standalone="no"?>
<!DOCTYPE svg PUBLIC "-//W3C//DTD SVG 20010904//EN"
 "http://www.w3.org/TR/2001/REC-SVG-20010904/DTD/svg10.dtd">
<svg version="1.0" xmlns="http://www.w3.org/2000/svg"
 width="512.000000pt" height="512.000000pt" viewBox="0 0 512.000000 512.000000"
 preserveAspectRatio="xMidYMid meet">

<g transform="translate(0.000000,512.000000) scale(0.100000,-0.100000)"
fill="#000000" stroke="none">
<path d="M572 5109 c-279 -47 -519 -292 -562 -575 -7 -47 -10 -687 -8 -2019
l3 -1950 28 -80 c79 -223 229 -373 452 -452 l80 -28 1995 0 1995 0 80 28 c231
82 390 248 462 482 17 57 18 148 18 2050 l0 1990 -28 80 c-79 223 -229 373
-452 452 l-80 28 -1965 1 c-1109 1 -1988 -2 -2018 -7z m1423 -1375 c142 -38
279 -120 386 -231 106 -109 167 -214 210 -359 30 -101 37 -294 15 -404 -66
-325 -281 -565 -595 -663 -59 -18 -101 -21 -391 -26 l-325 -6 -3 -343 -2 -344
-156 4 c-124 2 -157 6 -164 18 -6 9 -10 322 -10 795 0 831 2 874 50 1014 98
291 333 497 635 557 87 17 266 11 350 -12z m1108 -281 c113 -170 216 -321 230
-337 l24 -29 54 89 c31 49 120 200 199 337 l144 247 169 0 c132 0 167 -3 161
-12 -4 -7 -129 -194 -277 -414 l-269 -402 311 -436 310 -436 -176 2 -176 3
-211 332 c-116 182 -218 341 -226 353 -15 21 -19 17 -141 -147 -69 -92 -186
-250 -258 -351 -73 -101 -138 -185 -145 -188 -6 -2 -98 -3 -203 -2 l-192 3
305 428 c167 235 304 432 304 437 0 6 -121 192 -270 415 -148 223 -270 407
-270 410 0 3 89 5 198 5 l198 0 207 -307z"/>
<path d="M1672 3404 c-173 -46 -311 -179 -359 -348 -17 -57 -31 -538 -19 -620
l7 -46 269 0 c158 0 291 5 322 11 181 38 334 187 383 374 20 77 19 197 -1 266
-78 265 -352 431 -602 363z"/>
</g>
</svg>
